<?xml version="1.0" encoding="utf-8"?>
<!-- Generator: Adobe Illustrator 27.0.0, SVG Export Plug-In . SVG Version: 6.00 Build 0)  -->
<svg version="1.1" id="Layer_1" xmlns="http://www.w3.org/2000/svg" xmlns:xlink="http://www.w3.org/1999/xlink" x="0px" y="0px"
	 viewBox="0 0 16 16" style="enable-background:new 0 0 16 16;" xml:space="preserve">
<style type="text/css">
	.st0{fill:#7BEF87;}
</style>
<path class="st0" d="M14.4,16H1.6C0.7,16,0,15.3,0,14.4V1.6C0,0.7,0.7,0,1.6,0h12.8C15.3,0,16,0.7,16,1.6v12.8
	C16,15.3,15.3,16,14.4,16z"/>
<path d="M7.3,8.6H3.9C4,7.7,4.8,7,5.7,7.1C6.5,7,7.3,7.6,7.3,8.6C7.3,8.5,7.3,8.6,7.3,8.6 M2.4,9.3c-0.1,1.8,1.2,3.3,3,3.4
	c0.1,0,0.3,0,0.4,0c1,0,1.9-0.3,2.6-1l-0.7-1.2c-0.5,0.6-1.2,0.9-2,0.9c-1,0.1-1.9-0.7-2-1.7h5V9.3c0-2-1.2-3.5-3.2-3.5
	c-1.8,0-3.2,1.5-3.2,3.3C2.4,9.1,2.4,9.2,2.4,9.3"/>
<rect x="9.3" y="3.3" width="4.2" height="1.1"/>
</svg>
